<svg fill="none" version="1.1" viewBox="0 0 77 79" xmlns="http://www.w3.org/2000/svg">
 <g fill="#444">
  <path d="m58.674 19.028h-0.0608c-0.344-0.0219-0.6526-0.2162-0.8207-0.5164l-9.2749-16.556c-0.1702-0.29947-0.1765-0.66466-0.0169-0.96979 0.1596-0.30514 0.4633-0.50785 0.8066-0.53894 5.2756-0.47606 10.389 0.46547 13.69 2.5315 0.9218 0.56718 1.4847 1.5709 1.4882 2.653 0 3.8884-1.8329 8.7387-4.9922 12.992h7e-4c-0.1936 0.2578-0.498 0.4081-0.8201 0.4053zm-7.6355-16.657 7.706 13.751c3.4426-5.1845 3.6961-9.2756 3.6857-10.47 0.0042-0.38777-0.1957-0.74941-0.5263-0.95213-1.003-0.63781-4.6279-2.5619-10.865-2.3289z"/>
  <path d="m29.621 49.648c-0.6597 0.0056-1.3082-0.1667-1.879-0.498-0.57-0.3312-1.0404-0.8101-1.3617-1.3858-0.0629-0.1045-0.1011-0.2225-0.1116-0.344l-1.5589-10.987 2.025-0.2832 1.5391 10.774v-7e-4c0.3644 0.5079 0.9818 0.7692 1.5998 0.6788 0.7777-0.0791 1.4282-0.6251 1.6401-1.3773 0.0127-0.0424 0.0297-0.0827 0.0509-0.1215l6.703-14.46 1.833 0.8505-6.6727 14.43c-0.2415 0.7275-0.6879 1.3689-1.2869 1.8471-0.5983 0.4782-1.323 0.772-2.085 0.8469l-0.4351 0.0304z"/>
  <path d="m15.942 20.8-8.6378-7.1996c-0.09112-0.0826-0.16952-0.178-0.2331-0.2839-0.35527-0.6399-0.51349-1.371-0.45416-2.1013 0.05933-0.7297 0.3341-1.4254 0.78827-1.9997 0.46264-0.60886 1.0906-1.0708 1.8089-1.3314 0.71835-0.26064 1.4967-0.30796 2.2418-0.13703l15.847 1.9545-0.243 2.025-15.898-1.9537h-0.1215c-0.76-0.18153-1.5554 0.10454-2.025 0.72894-0.39837 0.4817-0.49585 1.1449-0.25356 1.7213l8.4753 7.088-1.2954 1.489z"/>
  <path d="m41.812 25.276c-1.5532 0.0212-3.0846-0.3715-4.4349-1.1386-1.3513-0.7671-2.4729-1.8809-3.2507-3.2258-1.1555-2.0661-1.4013-4.5198-0.678-6.7745 0.7282-2.2948 2.3125-4.2203 4.4245-5.3765 2.0554-1.2142 4.5078-1.5631 6.8203-0.9712 2.3126 0.5926 4.2952 2.078 5.5136 4.1307 1.1556 2.066 1.4014 4.5198 0.6781 6.7744-0.7233 2.3018-2.304 4.2374-4.4146 5.4069-1.4275 0.7812-3.0309 1.1852-4.6583 1.1746zm0.6986-15.756c-1.27 0.00989-2.5167 0.34115-3.6249 0.96204-1.662 0.9126-2.9065 2.4333-3.473 4.2429-0.5778 1.7108-0.4203 3.5839 0.4351 5.1746 0.9585 1.5814 2.5032 2.7201 4.2973 3.1679 1.7948 0.4479 3.6935 0.1681 5.282-0.7783 1.662-0.9126 2.9072-2.4333 3.473-4.243 0.5545-1.7206 0.3715-3.5938-0.5057-5.1745-0.5962-1.0299-1.4551-1.8824-2.4885-2.4715-1.0341-0.58906-2.2051-0.89285-3.3953-0.88014z"/>
  <path d="m17.47 36.544c-0.077 0.0099-0.1554 0.0099-0.2324 0-0.2804-0.0643-0.5191-0.2451-0.6583-0.4959l-4.5261-8.0506c-0.1391-0.2465-0.1688-0.5404-0.0812-0.8095 0.0911-0.2726 0.2931-0.4937 0.5566-0.6081l15.938-6.9567v7e-4c0.4768-0.207 1.0326-0.0184 1.2862 0.4351l2.845 5.0629c0.2557 0.4542 0.1244 1.0284-0.3037 1.3265l-14.247 9.9133c-0.1696 0.118-0.3709 0.1816-0.5779 0.1823zm-3.1085-8.6074 3.4427 6.1367 12.577-8.7995-1.9445-3.473-14.075 6.1358z"/>
  <path d="m25.723 37.304c-0.3673-0.0029-0.7042-0.2042-0.8808-0.5263l-2.6022-4.668c-0.2557-0.4549-0.1243-1.0284 0.3037-1.3265l7.8883-5.5087-1.9545-3.4837-8.8298 3.858c-0.4775 0.207-1.0327 0.0184-1.2862-0.4351l-2.6431-4.678c-0.2225-0.3913-0.1603-0.8815 0.1519-1.205 8.5163-8.7691 17.214-14.582 25.709-17.305 2.516-0.79816 5.1089-1.3279 7.7364-1.5801 0.4118-0.051563 0.813 0.15327 1.0129 0.51633l9.2141 16.566c0.1956 0.3447 0.1723 0.7728-0.0608 1.0934-1.5758 2.1339-3.3896 4.0804-5.4069 5.8026-6.7843 5.8526-16.252 10.177-28.119 12.849-0.0755 0.0212-0.1539 0.0311-0.233 0.0304l4e-4 1e-4zm-1.3159-5.3872 1.7919 3.1699c11.2-2.5618 20.109-6.6833 26.51-12.152 1.7482-1.4798 3.3396-3.1355 4.7487-4.9415l-8.637-15.462c-2.2625 0.25852-4.4938 0.7367-6.6629 1.4282-8.0402 2.5619-16.202 8.0197-24.302 16.202l1.792 3.2603 8.8199-3.858h-7e-4c0.4824-0.2189 1.0517-0.0296 1.3067 0.4351l2.8557 5.063h-7e-4c0.2557 0.4542 0.1243 1.0284-0.3037 1.3265l-7.9177 5.5285z"/>
  <path d="m16.741 78.122h-9.4979c-0.55943 0-1.0129-0.4534-1.0129-1.0129v-14.764c0-0.5594 0.45346-1.0122 1.0129-1.0122h9.4979c0.2684 0 0.5263 0.1067 0.7162 0.296 0.1901 0.19 0.2967 0.4478 0.2967 0.7162v14.764c0 0.2684-0.1067 0.5262-0.2967 0.7162s-0.4478 0.2967-0.7162 0.2967zm-8.4859-2.025h7.473l7e-4 -12.739h-7.473l-7e-4 12.739z"/>
  <path d="m35.728 78.122h-9.498c-0.5594 0-1.0129-0.4534-1.0129-1.0129v-22.145c0-0.5595 0.4535-1.0122 1.0129-1.0122h9.498c0.2684 0 0.5262 0.1066 0.7162 0.2959 0.19 0.19 0.2966 0.4478 0.2966 0.7162v22.145c0 0.2684-0.1066 0.5262-0.2966 0.7162s-0.4478 0.2967-0.7162 0.2967zm-8.4859-2.025h7.4729l7e-4 -20.12h-7.4729l-7e-4 20.12z"/>
  <path d="m54.714 78.122h-9.4979c-0.5595 0-1.0129-0.4535-1.0129-1.0129v-36.251c0-0.5594 0.4534-1.0122 1.0129-1.0122h9.4979c0.2684 0 0.5262 0.1067 0.7162 0.296 0.19 0.19 0.2967 0.4478 0.2967 0.7162v36.251c0 0.2684-0.1067 0.5262-0.2967 0.7162s-0.4478 0.2967-0.7162 0.2967zm-8.4859-2.025h7.473l7e-4 -34.226h-7.473l-7e-4 34.226z"/>
  <path d="m73.7 78.122h-9.498c-0.5594 0-1.0129-0.4534-1.0129-1.0129v-44.301c0-0.5594 0.4535-1.0129 1.0129-1.0129h9.498c0.2684 0 0.5262 0.1067 0.7162 0.2967s0.2966 0.4478 0.2966 0.7162v44.301c0 0.2684-0.1066 0.5262-0.2966 0.7162s-0.4478 0.2967-0.7162 0.2967zm-8.4852-2.0257h7.4729v-42.276h-7.4729v42.276z"/>
  <path d="m0.91418 76.097h75.945v2.025h-75.945v-2.025z"/>
 </g>
</svg>
