<svg fill="none" version="1.1" viewBox="0 0 33 32" xmlns="http://www.w3.org/2000/svg">
 <circle cx="16.739" cy="15.83" r="15.79" fill="url(#paint0_linear_14_432)"/>
 <path d="m19.927 7.9421h-6.3756c-2.5911 0-4.6991 2.108-4.6991 4.6991v6.3756c0 2.5911 2.108 4.6991 4.6991 4.6991h6.3756c2.591 0 4.699-2.108 4.699-4.6991v-6.3756c0-2.5911-2.108-4.6991-4.699-4.6991zm3.1121 11.075c0 1.7188-1.3934 3.1122-3.1122 3.1122h-6.3756c-1.7188 0-3.1123-1.3934-3.1123-3.1122v-6.3756c0-1.7189 1.3935-3.1123 3.1123-3.1123h6.3756c1.7188 0 3.1122 1.3934 3.1122 3.1123v6.3756zm-10.38-3.1877c0-2.2495 1.8301-4.0796 4.0797-4.0796 2.2495 0 4.0796 1.8301 4.0796 4.0796s-1.8301 4.0797-4.0796 4.0797c-2.2496 0-4.0797-1.8302-4.0797-4.0797zm4.0798 2.4927c-1.3767 0-2.4928-1.1161-2.4928-2.4928 0-1.3768 1.1161-2.4928 2.4928-2.4928 1.3768 0 2.4928 1.116 2.4928 2.4928 0 1.3767-1.116 2.4928-2.4928 2.4928zm5.0654-6.5439c0 0.5399-0.4376 0.9776-0.9775 0.9776s-0.9776-0.4377-0.9776-0.9776 0.4377-0.9776 0.9776-0.9776 0.9775 0.4377 0.9775 0.9776z" clip-rule="evenodd" fill="#fff" fill-rule="evenodd"/>
 <defs>
  <linearGradient id="paint0_linear_14_432" x1="16.739" x2="16.739" y1=".039551" y2="31.62" gradientUnits="userSpaceOnUse">
   <stop stop-color="#D803DF" offset="0"/>
   <stop stop-color="#FFA800" offset="1"/>
  </linearGradient>
 </defs>
</svg>
