<svg version="1.1" viewBox="0 0 20 21" xmlns="http://www.w3.org/2000/svg">
 <path d="m19.017 9.9149c-0.0091 0-0.018 0-0.0271-2.1e-4 -0.5153-0.01455-0.9215-0.44434-0.9069-0.95968 0.048-1.6916-0.5585-3.312-1.7075-4.5621-1.1174-1.2156-2.662-1.9501-4.3491-2.0678-0.514-0.03603-0.9021-0.4821-0.8663-0.99635 0.036-0.51445 0.4842-0.90366 0.9963-0.86632 2.1653 0.1513 4.1518 1.0982 5.5936 2.6669 1.48 1.6106 2.2611 3.6984 2.1991 5.8786-0.0137 0.50598-0.429 0.90688-0.9323 0.90688l2e-4 5e-5zm-3.3178-0.01975c-0.0296 0-0.0589-0.0013-0.0888-0.00434-0.5132-0.04819-0.8904-0.50359-0.8418-1.017 0.0797-0.84548-0.1736-1.555-0.7968-2.2332-0.686-0.74691-1.5056-1.1533-2.287-1.1337-0.0065 2.1e-4 -0.0128 2.1e-4 -0.0193 2.1e-4 -0.5069 0-0.9228-0.40569-0.933-0.91449-0.0106-0.51532 0.3985-0.94162 0.9143-0.95229 1.3343-0.02822 2.6462 0.58998 3.6997 1.7368 0.9789 1.0652 1.4096 2.3007 1.2802 3.6714-0.0451 0.48405-0.4515 0.84653-0.9275 0.84653v7e-5z" fill="#fff"/>
 <path d="m13.725 20.408c-0.1773 0-0.3445-0.0246-0.4968-0.0725-2.6523-0.834-5.4968-2.6352-7.8019-4.9418-2.3059-2.305-4.1078-5.1499-4.9428-7.8047-0.19753-0.62448 0.030824-1.5229 0.50902-2.0012l2.0276-2.028c0.39268-0.39332 0.91517-0.61014 1.4715-0.61014 0.55417 0 1.0752 0.21532 1.4668 0.60692l1.6149 1.6154c0.39267 0.39202 0.60798 0.91428 0.60648 1.4706-0.0013 0.55418-0.21794 1.0755-0.61015 1.4678l-0.81075 0.81076c-0.08249 0.0827-0.084 0.21619-0.00282 0.2976l4.845 4.8451c0.0497 0.0497 0.107 0.0601 0.1458 0.0601 0.0404 0 0.099-0.0108 0.1509-0.0629l0.8116-0.811c0.3939-0.394 0.9166-0.6106 1.4725-0.6106 0.554 0 1.0745 0.2156 1.4661 0.6074l1.6146 1.6145c0.8094 0.8095 0.8081 2.1273-0.0028 2.938l-2.0266 2.0268c-0.4011 0.402-1.0466 0.5818-1.5081 0.5818z" fill="#fff"/>
</svg>
