<svg version="1.1" viewBox="0 0 20 21" xmlns="http://www.w3.org/2000/svg">
 <path d="m18.941 9.7572c-0.0091 0-0.018 0-0.0272-2.2e-4 -0.5153-0.01454-0.9214-0.44433-0.9068-0.95967 0.0479-1.6916-0.5586-3.312-1.7075-4.5621-1.1174-1.2156-2.6621-1.9501-4.3492-2.0678-0.514-0.03604-0.9021-0.48211-0.8663-0.99636 0.036-0.51444 0.4843-0.90366 0.9964-0.86632 2.1652 0.1513 4.1518 1.0982 5.5935 2.6669 1.48 1.6106 2.2612 3.6984 2.1991 5.8786-0.0137 0.50599-0.4289 0.90689-0.9323 0.90689l3e-4 5e-5zm-3.3179-0.01975c-0.0295 0-0.0588-0.00131-0.0888-0.00435-0.5131-0.04818-0.8903-0.50359-0.8417-1.017 0.0796-0.84549-0.1737-1.555-0.7969-2.2332-0.6859-0.7469-1.5056-1.1533-2.287-1.1337-0.0065 2.2e-4 -0.0128 2.2e-4 -0.0193 2.2e-4 -0.5068 0-0.9227-0.4057-0.9329-0.9145-0.0107-0.51531 0.3985-0.94162 0.9142-0.95229 1.3344-0.02821 2.6463 0.58998 3.6997 1.7368 0.979 1.0651 1.4096 2.3007 1.2803 3.6714-0.0452 0.48406-0.4515 0.84654-0.9275 0.84654l-1e-4 7e-5z" fill="#E04A4A"/>
 <path d="m13.649 20.251c-0.1774 0-0.3445-0.0245-0.4969-0.0725-2.6523-0.8339-5.4968-2.6352-7.8019-4.9417-2.3059-2.305-4.1078-5.1499-4.9428-7.8047-0.19753-0.62448 0.030824-1.5229 0.50902-2.0012l2.0276-2.028c0.39268-0.39333 0.91517-0.61015 1.4715-0.61015 0.55417 0 1.0752 0.21533 1.4667 0.60692l1.615 1.6154c0.39267 0.39202 0.60798 0.91427 0.60648 1.4706-0.0013 0.55417-0.21794 1.0755-0.61015 1.4678l-0.81075 0.81075c-0.08249 0.0827-0.084 0.2162-0.00282 0.2976l4.845 4.8451c0.0497 0.0497 0.107 0.0601 0.1459 0.0601 0.0403 0 0.0989-0.0108 0.1508-0.0629l0.8116-0.811c0.394-0.394 0.9167-0.6106 1.4726-0.6106 0.5539 0 1.0745 0.2156 1.4661 0.6074l1.6145 1.6145c0.8094 0.8094 0.8082 2.1273-0.0028 2.938l-2.0265 2.0268c-0.4012 0.402-1.0466 0.5817-1.5081 0.5817z" fill="#E04A4A"/>
</svg>
