<svg fill="none" version="1.1" viewBox="0 0 20 16" xmlns="http://www.w3.org/2000/svg">
 <g fill="#E04A4A">
  <path d="m0.43018 1.825c-0.020512 0.14893-0.041024 0.29786-0.041024 0.44679v11.046c0 0.1241 0.020512 0.2482 0.041024 0.3723l5.7844-6.4288-5.7844-5.436z"/>
  <path d="m19.836 1.825-5.7638 5.4111 5.7844 6.4288c0.0205-0.1241 0.0205-0.2482 0.0205-0.3723v-11.021c0-0.14893-0.0205-0.29786-0.0411-0.44679z"/>
  <path d="m11.505 9.6445c-0.7794 0.74462-1.9691 0.74462-2.7486 0l-1.2307-1.1418-5.9485 6.6026c0.10256 0.0248 0.20512 0.0496 0.30768 0.0496h16.451c0.1025 0 0.2051-0.0248 0.3077-0.0496l-5.9075-6.6026-1.2307 1.1418z"/>
  <path d="m10.503 8.0557 8.1022-7.6203c-0.0821-0.024821-0.1436-0.024821-0.2257-0.024821h-16.471c-0.08204 0-0.14358 0-0.22563 0.024821l8.1022 7.6203c0.20512 0.19857 0.49227 0.19857 0.71797 0z"/>
 </g>
</svg>
