<svg fill="none" version="1.1" viewBox="0 0 32 32" xmlns="http://www.w3.org/2000/svg">
 <circle cx="15.917" cy="15.83" r="15.79" fill="#46C456"/>
 <path d="m19.451 17.272-0.0057 0.0481c-1.4112-0.7033-1.5588-0.797-1.741-0.5237-0.1264 0.1893-0.4948 0.6187-0.6058 0.7457-0.1123 0.1252-0.224 0.1348-0.4146 0.0481-0.1925-0.0962-0.8104-0.2984-1.542-0.9529-0.5699-0.5102-0.9523-1.1358-1.0653-1.3284-0.188-0.3247 0.2054-0.3709 0.5635-1.0485 0.0641-0.1348 0.0314-0.2407-0.0161-0.3363-0.0481-0.0962-0.4312-1.0396-0.5916-1.4156-0.154-0.3748-0.3126-0.3273-0.4313-0.3273-0.3696-0.0321-0.6398-0.0269-0.8778 0.2208-1.0358 1.1384-0.7746 2.3127 0.1116 3.5615 1.7416 2.2794 2.6696 2.6991 4.3663 3.2817 0.4582 0.1457 0.8759 0.1252 1.2064 0.0777 0.3683-0.0584 1.1339-0.4627 1.2937-0.9151 0.1636-0.4524 0.1636-0.8278 0.1155-0.9145-0.0475-0.0866-0.1733-0.1347-0.3658-0.2213z" fill="#fff"/>
 <path d="m22.901 15.829c0 3.8571-3.1268 6.984-6.984 6.984-1.2007 0-2.3281-0.3022-3.313-0.834-0.3082-0.1665-0.629-0.1634-0.8217-0.1471-0.2148 0.0182-0.4327 0.0692-0.6271 0.1247-0.3513 0.1003-0.7507 0.2529-1.1046 0.3882-0.0354 0.0135-0.07021 0.0268-0.10453 0.0399-0.21089 0.0803-0.40307 0.1523-0.57536 0.2118 0.05286-0.1698 0.11767-0.3598 0.19062-0.5692 0.01245-0.0358 0.02517-0.0722 0.03806-0.1091 0.12434-0.3558 0.26555-0.76 0.35467-1.1169 0.04964-0.1987 0.09354-0.4218 0.10324-0.642 9e-3 -0.2027-0.0044-0.5195-0.17908-0.8192-0.60082-1.0308-0.94528-2.2294-0.94528-3.5111 0-3.8572 3.1269-6.9841 6.9841-6.9841s6.984 3.1269 6.984 6.9841z" stroke="#fff" stroke-width="1.8"/>
</svg>
