<svg width="71" height="69" viewBox="0 0 71 69" fill="none" xmlns="http://www.w3.org/2000/svg">
<rect x="0.312988" width="70.313" height="68.6748" rx="34.3374" fill="#E04A4A"/>
<path d="M41.0195 13H25V24.0792V38.9H29.9645H36.0792H45.8992V13H41.0195ZM26.1624 14.1624H39.8692V17.9645H29.9645V22.9168H26.1624V14.1624ZM26.1624 37.7376V24.0792H29.9645V37.7376H26.1624ZM31.1148 37.7376V24.0792H39.8571V27.8813H34.9289V37.7497H31.1148V37.7376ZM44.7489 37.7376H36.0792V29.0316H41.0195V22.9168H31.1148V19.1148H41.0195V14.1503H44.7368V37.7376H44.7489Z" fill="white"/>
<path d="M12.222 45.33H11.202V52H12.222V49.24L12.422 49.04L14.802 52H16.162L13.132 48.35L16.142 45.33H14.802L12.222 47.99V45.33ZM17.4613 45.33V52H19.1313C19.6413 52 20.4713 51.91 21.0013 51.35C21.3213 51.01 21.4413 50.63 21.4413 50.15C21.4413 49.74 21.3613 49.28 21.0013 48.9C20.6713 48.56 20.2613 48.45 20.1413 48.42C20.2913 48.35 20.4913 48.22 20.6413 47.96C20.8013 47.7 20.8413 47.43 20.8413 47.17C20.8413 46.62 20.6713 46.19 20.3113 45.85C19.8713 45.44 19.3313 45.33 18.4713 45.33H17.4613ZM18.4813 46.29H18.8313C19.1213 46.29 19.4113 46.32 19.6413 46.54C19.8513 46.74 19.8813 46.98 19.8813 47.18C19.8813 47.41 19.8513 47.72 19.6213 47.94C19.3813 48.17 19.0413 48.2 18.7913 48.2H18.4813V46.29ZM18.4813 49.04H19.1213C19.4813 49.04 19.8913 49.07 20.1713 49.34C20.3413 49.51 20.4413 49.77 20.4413 50.04C20.4413 50.34 20.3113 50.62 20.1113 50.78C19.8513 50.99 19.3913 51.04 19.1013 51.04H18.4813V49.04ZM27.4325 52H28.5325L25.3725 44.94L22.0525 52H23.1525L23.8825 50.39H26.7325L27.4325 52ZM24.3025 49.43L25.3325 47.17L26.3225 49.43H24.3025ZM29.775 45.33V52H30.795V49.29H31.255C31.745 49.29 32.355 49.22 32.885 48.77C33.435 48.3 33.535 47.7 33.535 47.31C33.535 46.7 33.265 46.06 32.705 45.69C32.225 45.37 31.655 45.33 31.245 45.33H29.775ZM30.795 46.27H31.245C32.405 46.27 32.555 46.93 32.555 47.3C32.555 47.92 32.135 48.35 31.255 48.35H30.795V46.27ZM38.5745 46.29V45.33H34.4945V46.29H36.0245V52H37.0445V46.29H38.5745ZM44.3719 52H45.3919V45.05L40.8919 49.84V45.33H39.8719V52.3L44.3719 47.51V52ZM47.391 45.33V52H48.411V49.29H48.871C49.361 49.29 49.971 49.22 50.501 48.77C51.051 48.3 51.151 47.7 51.151 47.31C51.151 46.7 50.881 46.06 50.321 45.69C49.841 45.37 49.271 45.33 48.861 45.33H47.391ZM48.411 46.27H48.861C50.021 46.27 50.171 46.93 50.171 47.3C50.171 47.92 49.751 48.35 48.871 48.35H48.411V46.27ZM52.5957 52H54.3857C54.7957 52 55.3657 51.96 55.8457 51.64C56.4057 51.27 56.6757 50.63 56.6757 50.02C56.6757 49.41 56.4257 48.88 56.0457 48.55C55.5357 48.1 54.8557 48.02 54.3757 48.02H53.6157V45.33H52.5957V52ZM53.6157 48.98H54.3557C55.4357 48.98 55.6757 49.55 55.6757 50.03C55.6757 51.04 54.6057 51.04 54.3357 51.04H53.6157V48.98ZM57.3757 45.33V52H58.3957V45.33H57.3757Z" fill="white"/>
</svg>
