<svg width="123" height="119" viewBox="0 0 123 119" fill="none" xmlns="http://www.w3.org/2000/svg">
<path d="M7.67243 89.6177V95.0864L2.83392 89.6177H0.313017L5.90373 95.8387L0.191038 103.178H2.7526L7.34715 97.2008L7.67243 97.5667V103.178H9.74607V97.5667L10.0714 97.2008L14.6659 103.178H17.2275L11.5148 95.8387L17.1055 89.6177H14.5846L9.74607 95.0864V89.6177H7.67243ZM29.5715 103.178H31.8078L25.3836 88.8248L18.634 103.178H20.8703L22.3544 99.9046H28.1484L29.5715 103.178ZM23.2083 97.953L25.3022 93.3584L27.3149 97.953H23.2083ZM43.4822 103.178H45.5559V89.0485L36.4074 98.7865V89.6177H34.3338V103.788L43.4822 94.0496V103.178ZM36.5904 86.2633C37.2816 87.9507 38.8877 88.3369 39.9448 88.3369C41.002 88.3369 42.608 87.9507 43.2992 86.2633L41.6729 85.5314C41.3476 86.6496 40.1075 86.6699 39.9448 86.6699C39.7822 86.6699 38.5421 86.6496 38.2168 85.5314L36.5904 86.2633ZM59.663 90.3496C58.4839 89.5974 57.2844 89.3738 56.0443 89.3738C54.174 89.3738 52.5476 89.821 51.1448 91.1425C50.0064 92.2199 48.9695 93.948 48.9695 96.4485C48.9695 98.3596 49.5591 100.088 51.1448 101.572C51.9377 102.324 53.4828 103.442 55.9427 103.442C56.8778 103.442 58.3009 103.239 59.663 102.426V99.9656C58.8905 100.697 57.6301 101.531 56.0037 101.531C53.1168 101.531 51.0432 99.3151 51.0432 96.4485C51.0432 93.4601 53.0355 91.2848 55.9833 91.2848C56.7559 91.2848 58.1586 91.4271 59.663 92.7892V90.3496ZM71.9958 103.178H74.2321L67.8079 88.8248L61.0583 103.178H63.2946L64.7787 99.9046H70.5727L71.9958 103.178ZM65.6326 97.953L67.7265 93.3584L69.7392 97.953H65.6326ZM78.8317 89.6177H76.7581V103.178H78.8317V96.9365H84.6461V103.178H86.7197V89.6177H84.6461V94.9848H78.8317V89.6177ZM98.4254 103.178V93.704L108.265 104.011V89.6177H106.191V99.0101L96.3518 88.7029V103.178H98.4254ZM119.855 91.6507C119.57 91.0815 119.184 90.6139 118.818 90.2886C118.391 89.9227 117.558 89.3738 116.094 89.3738C113.553 89.3738 112.13 91.1221 112.13 92.9518C112.13 94.9848 113.776 95.92 114.895 96.3876L116.196 96.9365C117.09 97.3024 118.147 97.8716 118.147 99.2541C118.147 100.616 117.171 101.531 115.911 101.531C115.098 101.531 114.529 101.206 114.142 100.718C113.817 100.291 113.573 99.6607 113.573 98.9898L111.52 99.437C111.601 100.372 111.926 101.267 112.658 102.08C113.349 102.852 114.285 103.442 115.85 103.442C118.391 103.442 120.221 101.673 120.221 99.0914C120.221 97.5464 119.53 96.1233 117.029 95.1068L115.667 94.5579C114.346 94.0293 114.203 93.3177 114.203 92.9112C114.203 92.037 114.854 91.2848 116.114 91.2848C116.704 91.2848 117.151 91.4271 117.578 91.7727C117.883 92.037 118.066 92.3216 118.188 92.6265L119.855 91.6507Z" fill="white"/>
<path d="M7.47967 108.769V111.081L5.43431 108.769H4.36866L6.732 111.399L4.3171 114.501H5.39994L7.34217 111.975L7.47967 112.13V114.501H8.35626V112.13L8.49376 111.975L10.436 114.501H11.5188L9.10393 111.399L11.4673 108.769H10.4016L8.35626 111.081V108.769H7.47967ZM18.6836 114.501H19.5602V108.529L15.6929 112.645V108.769H14.8164V114.759L18.6836 110.643V114.501ZM24.0627 108.769V112.19C24.0627 112.688 24.0713 113.264 23.7791 113.548C23.6674 113.659 23.4869 113.745 23.2635 113.745C23.1432 113.745 23.0314 113.719 22.9455 113.694V114.501C23.0486 114.527 23.1775 114.553 23.3322 114.553C23.6932 114.553 24.0799 114.45 24.3721 114.209C24.9135 113.762 24.9393 113.101 24.9393 112.448V109.594H26.8472V114.501H27.7237V108.769H24.0627ZM34.3874 108.666C32.6686 108.666 31.4053 109.955 31.4053 111.64C31.4053 113.324 32.6686 114.613 34.3874 114.613C36.1062 114.613 37.3695 113.324 37.3695 111.64C37.3695 109.955 36.1062 108.666 34.3874 108.666ZM34.3874 113.805C33.1585 113.805 32.2819 112.912 32.2819 111.64C32.2819 110.368 33.1585 109.474 34.3874 109.474C35.6163 109.474 36.4929 110.368 36.4929 111.64C36.4929 112.912 35.6163 113.805 34.3874 113.805ZM44.9153 114.501H45.7919V108.529L41.9246 112.645V108.769H41.0481V114.759L44.9153 110.643V114.501ZM42.002 107.351C42.2942 108.065 42.9731 108.228 43.42 108.228C43.8669 108.228 44.5458 108.065 44.838 107.351L44.1505 107.042C44.013 107.515 43.4887 107.523 43.42 107.523C43.3512 107.523 42.827 107.515 42.6895 107.042L42.002 107.351ZM55.205 108.769H54.3284V114.501H55.205V112.13L55.3769 111.958L57.4222 114.501H58.591L55.987 111.365L58.5738 108.769H57.4222L55.205 111.055V108.769ZM64.3806 108.666C62.6618 108.666 61.3985 109.955 61.3985 111.64C61.3985 113.324 62.6618 114.613 64.3806 114.613C66.0994 114.613 67.3627 113.324 67.3627 111.64C67.3627 109.955 66.0994 108.666 64.3806 108.666ZM64.3806 113.805C63.1517 113.805 62.2751 112.912 62.2751 111.64C62.2751 110.368 63.1517 109.474 64.3806 109.474C65.6096 109.474 66.4862 110.368 66.4862 111.64C66.4862 112.912 65.6096 113.805 64.3806 113.805ZM71.503 114.501L72.1046 111.038L73.7546 114.768L75.4219 111.047L76.0062 114.501H76.9L75.8172 108.34L73.8062 112.791L71.8124 108.34L70.6092 114.501H71.503ZM80.6776 108.769V114.501H81.5542V109.594H84.0121V114.501H84.8886V108.769H80.6776ZM89.3952 108.769V112.19C89.3952 112.688 89.4038 113.264 89.1116 113.548C88.9999 113.659 88.8194 113.745 88.596 113.745C88.4757 113.745 88.3639 113.719 88.278 113.694V114.501C88.3811 114.527 88.51 114.553 88.6647 114.553C89.0257 114.553 89.4124 114.45 89.7046 114.209C90.246 113.762 90.2718 113.101 90.2718 112.448V109.594H92.1797V114.501H93.0562V108.769H89.3952ZM100.175 108.769H97.0128V114.501H100.175V113.676H97.8894V111.872H100.107V111.047H97.8894V109.594H100.175V108.769ZM104.765 108.769H103.888V114.501H104.765V112.13L104.936 111.958L106.982 114.501H108.151L105.547 111.365L108.133 108.769H106.982L104.765 111.055V108.769ZM115.479 109.079C114.98 108.761 114.473 108.666 113.949 108.666C113.158 108.666 112.471 108.855 111.878 109.414C111.396 109.869 110.958 110.6 110.958 111.657C110.958 112.465 111.207 113.195 111.878 113.823C112.213 114.141 112.866 114.613 113.906 114.613C114.301 114.613 114.903 114.527 115.479 114.183V113.144C115.152 113.453 114.619 113.805 113.932 113.805C112.711 113.805 111.835 112.869 111.835 111.657C111.835 110.394 112.677 109.474 113.923 109.474C114.25 109.474 114.843 109.534 115.479 110.11V109.079Z" fill="white"/>
<path d="M53.7203 74.3245V4.80205L57.88 0.642485V10.9141H67.811V74.3245H63.6239V15.2911H56.2265L57.88 16.9446V74.3245H53.7203Z" fill="white"/>
<path d="M57.918 0.604492L57.88 0.642485M57.88 0.642485L53.7203 4.80205V74.3245H57.88V16.9446L56.2265 15.2911H63.6239V74.3245H67.8109V10.9141H57.88V0.642485Z" stroke="white" stroke-width="0.433022"/>
<path d="M48.0131 74.3243H43.6507V39.3019L48.0131 34.9395V74.3243Z" fill="white" stroke="white" stroke-width="0.433022"/>
<path d="M73.518 74.3243H77.8804V39.3019L73.518 34.9395V74.3243Z" fill="white" stroke="white" stroke-width="0.433022"/>
<path d="M103.792 81.9585C101.675 81.3799 98.6039 80.6224 94.6879 79.8729C86.6836 78.3409 75.1488 76.8424 61.0202 76.9738C46.8944 77.1052 35.3509 78.5524 27.3374 79.967C23.3306 80.6744 20.2062 81.3736 18.0826 81.8963C17.9356 81.9325 17.7933 81.9679 17.656 82.0023C31.3698 76.2168 46.1176 73.2462 61.0218 73.2793C75.724 73.3119 90.2611 76.2665 103.792 81.9585Z" fill="white" stroke="white" stroke-width="0.433022"/>
</svg>
