<svg width="20" height="21" viewBox="0 0 20 21" fill="none" xmlns="http://www.w3.org/2000/svg">
<path d="M19.0168 9.91488C19.0077 9.91488 18.9988 9.91488 18.9897 9.91467C18.4744 9.90012 18.0682 9.47033 18.0828 8.95499C18.1308 7.26342 17.5243 5.64297 16.3753 4.39289C15.2579 3.17732 13.7133 2.44275 12.0262 2.32511C11.5122 2.28908 11.1241 1.84301 11.1599 1.32876C11.1959 0.814312 11.6441 0.425096 12.1562 0.462439C14.3215 0.613736 16.308 1.56059 17.7498 3.12931C19.2298 4.73992 20.0109 6.8277 19.9489 9.00795C19.9352 9.51393 19.5199 9.91483 19.0166 9.91483L19.0168 9.91488ZM15.699 9.89513C15.6694 9.89513 15.6401 9.89383 15.6102 9.89079C15.097 9.8426 14.7198 9.3872 14.7684 8.87382C14.8481 8.02834 14.5948 7.31878 13.9716 6.64062C13.2856 5.89371 12.466 5.48734 11.6846 5.5069C11.6781 5.50711 11.6718 5.50711 11.6653 5.50711C11.1584 5.50711 10.7425 5.10142 10.7323 4.59262C10.7217 4.0773 11.1308 3.651 11.6466 3.64033C12.9809 3.61211 14.2928 4.23031 15.3463 5.37708C16.3252 6.44223 16.7559 7.67775 16.6265 9.04853C16.5814 9.53258 16.175 9.89506 15.699 9.89506L15.699 9.89513Z" fill="white"/>
<path d="M13.7246 20.4085C13.5473 20.4085 13.3801 20.3839 13.2278 20.336C10.5755 19.502 7.73099 17.7008 5.42588 15.3942C3.11999 13.0892 1.31811 10.2443 0.483071 7.58954C0.28554 6.96506 0.513895 6.06662 0.992094 5.58839L3.01969 3.56034C3.41237 3.16702 3.93486 2.9502 4.49116 2.9502C5.04533 2.9502 5.56631 3.16552 5.95791 3.55712L7.57285 5.17251C7.96552 5.56453 8.18083 6.08679 8.17933 6.64314C8.17803 7.19732 7.96139 7.71868 7.56918 8.11094L6.75843 8.9217C6.67594 9.0044 6.67443 9.13789 6.75561 9.2193L11.6006 14.0644C11.6503 14.1141 11.7076 14.1245 11.7464 14.1245C11.7868 14.1245 11.8454 14.1137 11.8973 14.0616L12.7089 13.2506C13.1028 12.8566 13.6255 12.64 14.1814 12.64C14.7354 12.64 15.2559 12.8556 15.6475 13.2474L17.2621 14.8619C18.0715 15.6714 18.0702 16.9892 17.2593 17.7999L15.2327 19.8267C14.8316 20.2287 14.1861 20.4085 13.7246 20.4085Z" fill="white"/>
</svg>
