<svg width="125" height="119" viewBox="0 0 125 119" fill="none" xmlns="http://www.w3.org/2000/svg">
<path d="M8.13474 92.3085V97.9479L3.14526 92.3085H0.545707L6.31085 98.7236L0.419922 106.292H3.06141L7.79931 100.128L8.13474 100.506V106.292H10.2731V100.506L10.6085 100.128L15.3464 106.292H17.9879L12.097 98.7236L17.8621 92.3085H15.2626L10.2731 97.9479V92.3085H8.13474Z" fill="#151515"/>
<path d="M30.7171 106.292H33.0231L26.3985 91.4909L19.4384 106.292H21.7444L23.2748 102.916H29.2496L30.7171 106.292ZM24.1553 100.904L26.3146 96.1659L28.3901 100.904H24.1553Z" fill="#151515"/>
<path d="M45.0618 106.292H47.2002V91.7215L37.7663 101.763V92.3085H35.6279V106.921L45.0618 96.8787V106.292ZM37.955 88.8494C38.6677 90.5895 40.3239 90.9878 41.414 90.9878C42.5042 90.9878 44.1604 90.5895 44.8731 88.8494L43.196 88.0947C42.8606 89.2478 41.5818 89.2687 41.414 89.2687C41.2463 89.2687 39.9675 89.2478 39.6321 88.0947L37.955 88.8494Z" fill="#151515"/>
<path d="M61.7475 93.0632C60.5316 92.2876 59.2947 92.057 58.0159 92.057C56.0872 92.057 54.41 92.5182 52.9635 93.8808C51.7895 94.9919 50.7203 96.7739 50.7203 99.3525C50.7203 101.323 51.3283 103.105 52.9635 104.635C53.7811 105.411 55.3744 106.564 57.911 106.564C58.8754 106.564 60.3429 106.355 61.7475 105.516V102.979C60.9508 103.734 59.6511 104.594 57.9739 104.594C54.997 104.594 52.8587 102.308 52.8587 99.3525C52.8587 96.2708 54.9132 94.0276 57.953 94.0276C58.7496 94.0276 60.1961 94.1743 61.7475 95.5789V93.0632Z" fill="#151515"/>
<path d="M74.465 106.292H76.7711L70.1464 91.4909L63.1863 106.292H65.4924L67.0228 102.916H72.9975L74.465 106.292ZM67.9032 100.904L70.0626 96.1659L72.138 100.904H67.9032Z" fill="#151515"/>
<path d="M81.5142 92.3085H79.3759V106.292H81.5142V99.8556H87.51V106.292H89.6483V92.3085H87.51V97.8431H81.5142V92.3085Z" fill="#151515"/>
<path d="M101.719 106.292V96.5223L111.866 107.151V92.3085H109.728V101.994L99.5809 91.3651V106.292H101.719Z" fill="#151515"/>
<path d="M123.817 94.4049C123.524 93.8179 123.126 93.3358 122.748 93.0003C122.308 92.623 121.449 92.057 119.939 92.057C117.319 92.057 115.851 93.8599 115.851 95.7466C115.851 97.8431 117.549 98.8074 118.702 99.2896L120.044 99.8556C120.966 100.233 122.056 100.82 122.056 102.246C122.056 103.65 121.05 104.594 119.75 104.594C118.912 104.594 118.325 104.258 117.927 103.755C117.591 103.315 117.34 102.665 117.34 101.973L115.222 102.434C115.306 103.399 115.641 104.321 116.396 105.16C117.109 105.956 118.073 106.564 119.688 106.564C122.308 106.564 124.195 104.74 124.195 102.078C124.195 100.485 123.482 99.0171 120.903 97.9689L119.499 97.4028C118.136 96.8577 117.989 96.124 117.989 95.7047C117.989 94.8033 118.66 94.0276 119.96 94.0276C120.568 94.0276 121.029 94.1743 121.469 94.5307C121.784 94.8033 121.973 95.0968 122.098 95.4112L123.817 94.4049Z" fill="#151515"/>
<path d="M7.93593 112.057V114.441L5.82675 112.057H4.72786L7.16493 114.769L4.67468 117.968H5.79131L7.79414 115.363L7.93593 115.522V117.968H8.83986V115.522L8.98166 115.363L10.9845 117.968H12.1011L9.61087 114.769L12.0479 112.057H10.949L8.83986 114.441V112.057H7.93593Z" fill="#151515"/>
<path d="M19.4895 117.968H20.3934V111.809L16.4055 116.054V112.057H15.5015V118.234L19.4895 113.989V117.968Z" fill="#151515"/>
<path d="M25.0364 112.057V115.584C25.0364 116.098 25.0452 116.692 24.7439 116.984C24.6287 117.1 24.4426 117.188 24.2122 117.188C24.0881 117.188 23.9729 117.162 23.8843 117.135V117.968C23.9906 117.995 24.1236 118.021 24.2831 118.021C24.6553 118.021 25.0541 117.915 25.3554 117.667C25.9137 117.206 25.9403 116.524 25.9403 115.85V112.908H27.9077V117.968H28.8116V112.057H25.0364Z" fill="#151515"/>
<path d="M35.6832 111.951C33.9108 111.951 32.6081 113.28 32.6081 115.017C32.6081 116.754 33.9108 118.083 35.6832 118.083C37.4556 118.083 38.7584 116.754 38.7584 115.017C38.7584 113.28 37.4556 111.951 35.6832 111.951ZM35.6832 117.25C34.4159 117.25 33.512 116.329 33.512 115.017C33.512 113.706 34.4159 112.784 35.6832 112.784C36.9505 112.784 37.8544 113.706 37.8544 115.017C37.8544 116.329 36.9505 117.25 35.6832 117.25Z" fill="#151515"/>
<path d="M46.5396 117.968H47.4435V111.809L43.4556 116.054V112.057H42.5517V118.234L46.5396 113.989V117.968ZM43.5354 110.595C43.8367 111.33 44.5368 111.499 44.9976 111.499C45.4584 111.499 46.1585 111.33 46.4599 110.595L45.7509 110.276C45.6091 110.763 45.0685 110.772 44.9976 110.772C44.9267 110.772 44.3861 110.763 44.2443 110.276L43.5354 110.595Z" fill="#151515"/>
<path d="M57.1503 112.057H56.2464V117.968H57.1503V115.522L57.3275 115.345L59.4367 117.968H60.642L57.9567 114.734L60.6242 112.057H59.4367L57.1503 114.414V112.057Z" fill="#151515"/>
<path d="M66.6122 111.951C64.8398 111.951 63.5371 113.28 63.5371 115.017C63.5371 116.754 64.8398 118.083 66.6122 118.083C68.3847 118.083 69.6874 116.754 69.6874 115.017C69.6874 113.28 68.3847 111.951 66.6122 111.951ZM66.6122 117.25C65.345 117.25 64.441 116.329 64.441 115.017C64.441 113.706 65.345 112.784 66.6122 112.784C67.8795 112.784 68.7834 113.706 68.7834 115.017C68.7834 116.329 67.8795 117.25 66.6122 117.25Z" fill="#151515"/>
<path d="M73.9568 117.968L74.5772 114.397L76.2787 118.243L77.9979 114.406L78.6006 117.968H79.5222L78.4056 111.614L76.3319 116.205L74.2759 111.614L73.0352 117.968H73.9568Z" fill="#151515"/>
<path d="M83.4177 112.057V117.968H84.3216V112.908H86.8562V117.968H87.7601V112.057H83.4177Z" fill="#151515"/>
<path d="M92.4073 112.057V115.584C92.4073 116.098 92.4161 116.692 92.1148 116.984C91.9996 117.1 91.8135 117.188 91.5831 117.188C91.459 117.188 91.3438 117.162 91.2552 117.135V117.968C91.3616 117.995 91.4945 118.021 91.654 118.021C92.0262 118.021 92.425 117.915 92.7263 117.667C93.2846 117.206 93.3112 116.524 93.3112 115.85V112.908H95.2786V117.968H96.1825V112.057H92.4073Z" fill="#151515"/>
<path d="M103.524 112.057H100.263V117.968H103.524V117.117H101.166V115.256H103.453V114.406H101.166V112.908H103.524V112.057Z" fill="#151515"/>
<path d="M108.256 112.057H107.352V117.968H108.256V115.522L108.433 115.345L110.543 117.968H111.748L109.063 114.734L111.73 112.057H110.543L108.256 114.414V112.057Z" fill="#151515"/>
<path d="M119.304 112.376C118.79 112.048 118.268 111.951 117.727 111.951C116.912 111.951 116.203 112.146 115.591 112.722C115.095 113.192 114.643 113.945 114.643 115.035C114.643 115.868 114.9 116.621 115.591 117.268C115.937 117.596 116.61 118.083 117.683 118.083C118.09 118.083 118.711 117.995 119.304 117.64V116.568C118.968 116.887 118.418 117.25 117.709 117.25C116.451 117.25 115.547 116.284 115.547 115.035C115.547 113.732 116.415 112.784 117.7 112.784C118.037 112.784 118.649 112.846 119.304 113.44V112.376Z" fill="#151515"/>
<path d="M55.6194 76.5384V4.84684L59.9089 0.557488V11.1495H70.1496V76.5384H65.832V15.6631H58.2037L59.9089 17.3683V76.5384H55.6194Z" fill="#E04A4A"/>
<path fill-rule="evenodd" clip-rule="evenodd" d="M59.7901 0.360107L59.9871 0.55716H60.1321V10.9259H70.3728V76.7614H65.6086V15.8861H58.7427L60.1321 17.2755V76.7614H55.3961V4.75403L59.7901 0.360107ZM59.6855 1.09616L55.8426 4.93899V76.3148H59.6855V17.4604L57.6646 15.4395H66.0552V76.3148H69.9263V11.3725H59.6855V1.09616Z" fill="#E04A4A"/>
<path d="M49.734 76.5383H45.2355V40.4231L49.734 35.9246V76.5383Z" fill="#E04A4A"/>
<path fill-rule="evenodd" clip-rule="evenodd" d="M49.9573 35.3853V76.7613H45.0122V40.3303L49.9573 35.3853ZM45.4587 40.5153V76.3147H49.5107V36.4633L45.4587 40.5153Z" fill="#E04A4A"/>
<path d="M76.0348 76.5383H80.5333V40.4231L76.0348 35.9246V76.5383Z" fill="#E04A4A"/>
<path fill-rule="evenodd" clip-rule="evenodd" d="M75.8115 35.3853V76.7613H80.7565V40.3303L75.8115 35.3853ZM80.31 40.5153V76.3147H76.258V36.4633L80.31 40.5153Z" fill="#E04A4A"/>
<path d="M63.1491 75.2373C46.7454 75.201 30.525 78.686 15.5839 85.457C15.5839 85.457 34.0439 79.7645 63.1491 79.4937C92.2542 79.2229 110.668 85.6679 110.668 85.6679C95.7575 78.8307 79.5527 75.2737 63.1491 75.2373Z" fill="#E04A4A"/>
<path fill-rule="evenodd" clip-rule="evenodd" d="M18.5007 84.6682C16.5892 85.147 15.5839 85.457 15.5839 85.457C16.5041 85.04 17.4291 84.6354 18.3588 84.2434C32.5237 78.2701 47.7556 75.2032 63.1491 75.2373C78.3347 75.271 93.3498 78.3218 107.326 84.1991C108.447 84.6705 109.561 85.1602 110.668 85.6679C110.668 85.6679 109.462 85.2457 107.18 84.6221C100.543 82.8089 84.8056 79.2922 63.1491 79.4937C40.8363 79.7013 24.7798 83.0953 18.5007 84.6682ZM21.2012 83.5688C23.1402 83.1325 25.5443 82.6368 28.3744 82.1371C36.6483 80.6765 48.5643 79.1828 63.1449 79.0472C77.7311 78.9114 89.6407 80.4585 97.9071 82.0406C100.26 82.4909 102.317 82.944 104.057 83.362C91.0251 78.3246 77.1594 75.7149 63.1481 75.6839C48.777 75.652 34.5471 78.3335 21.2012 83.5688Z" fill="#E04A4A"/>
</svg>
